<svg xmlns="http://www.w3.org/2000/svg" width="101.256" height="116.058" viewBox="0 0 101.256 116.058">
  <g id="Group_182" data-name="Group 182" transform="translate(-691.087 -2500)">
    <path id="Subtraction_2" data-name="Subtraction 2" d="M-268.712,1099.783a16.187,16.187,0,0,1-6.34-1.28,16.237,16.237,0,0,1-5.178-3.491,16.235,16.235,0,0,1-3.491-5.178,16.185,16.185,0,0,1-1.28-6.34,16.287,16.287,0,0,1,8.543-14.332,16.275,16.275,0,0,0-4.018,10.712,16.187,16.187,0,0,0,1.28,6.34,16.234,16.234,0,0,0,3.491,5.177,16.238,16.238,0,0,0,5.178,3.491,16.19,16.19,0,0,0,6.34,1.28,16.313,16.313,0,0,0,7.745-1.956A16.294,16.294,0,0,1-268.712,1099.783Z" transform="translate(1026.5 1472.608)" fill="#d4af37" opacity="0.3"/>
    <rect id="Rectangle_21" data-name="Rectangle 21" width="25" height="7" transform="translate(703 2523)" fill="#d4af37" opacity="0.3"/>
    <path id="Subtraction_1" data-name="Subtraction 1" d="M-268.712,1099.783a16.187,16.187,0,0,1-6.34-1.28,16.237,16.237,0,0,1-5.178-3.491,16.235,16.235,0,0,1-3.491-5.178,16.185,16.185,0,0,1-1.28-6.34,16.287,16.287,0,0,1,8.543-14.332,16.275,16.275,0,0,0-4.018,10.712,16.187,16.187,0,0,0,1.28,6.34,16.234,16.234,0,0,0,3.491,5.177,16.238,16.238,0,0,0,5.178,3.491,16.19,16.19,0,0,0,6.34,1.28,16.313,16.313,0,0,0,7.745-1.956A16.294,16.294,0,0,1-268.712,1099.783Z" transform="translate(1024.5 1474.608)" fill="#d4af37" opacity="0.3"/>
    <path id="Path_179" data-name="Path 179" d="M988,1522.677s5.427-1.4,9.263.388,2.309,5.752,6.08,6.758,6.6-4.82,9.005-2.735.616,11.077.616,11.077H987.232Z" transform="translate(-285 1064.417)" fill="#d4af37" opacity="0.3"/>
    <rect id="Rectangle_22" data-name="Rectangle 22" width="25" height="7" transform="translate(703 2525)" fill="#d4af37" opacity="0.3"/>
    <path id="Path_178" data-name="Path 178" d="M988,1522.677s5.427-1.4,9.263.388,2.309,5.752,6.08,6.758,6.6-4.82,9.005-2.735.616,11.077.616,11.077H987.232Z" transform="translate(-285 1067.417)" fill="#d4af37" opacity="0.3"/>
    <g id="noun-analyze-2607794" transform="translate(691.087 2500)">
      <path id="Path_168" data-name="Path 168" d="M227.551,117.439v16.348a1.919,1.919,0,0,1-1.872,1.872H139.072a1.919,1.919,0,0,1-1.872-1.872V21.472a1.919,1.919,0,0,1,1.872-1.872h86.607a1.919,1.919,0,0,1,1.872,1.872V91.607a1.872,1.872,0,1,1-3.743,0V23.344H140.943V131.915h82.864V117.44a1.872,1.872,0,0,1,3.744,0Zm10.358-1.872a2.138,2.138,0,0,1-2.746,0L212.326,92.73c-.124-.124-.124-.25-.25-.25a18.443,18.443,0,1,1,6.738-14.227,18.238,18.238,0,0,1-4.243,11.731c.124.124.25.124.25.25L237.784,113.2a1.459,1.459,0,0,1,.125,2.37ZM215.2,78.129a14.725,14.725,0,1,0-14.725,14.725A14.753,14.753,0,0,0,215.2,78.129Zm-22.713,47.547V106.706a1.872,1.872,0,1,0-3.743,0v18.969a1.872,1.872,0,0,0,3.743,0Zm-11.981,0a1.872,1.872,0,1,0,3.743,0V100.092a1.872,1.872,0,0,0-3.743,0Zm28.453,0v-8.112a1.872,1.872,0,0,0-3.743,0v8.111a1.872,1.872,0,0,0,3.743,0Zm8.237,0v-4.368a1.872,1.872,0,1,0-3.743,0v4.368a1.872,1.872,0,1,0,3.743,0Zm-16.473,0v-13.6a1.872,1.872,0,1,0-3.743,0v13.6a1.872,1.872,0,0,0,3.743,0Zm-.249-57.53a1.872,1.872,0,1,0,0,3.743,6.179,6.179,0,0,1,6.24,6.24,1.872,1.872,0,0,0,3.743,0,10.012,10.012,0,0,0-9.983-9.983Zm16.722-25.832a1.919,1.919,0,0,0-1.872-1.872H181.876a1.872,1.872,0,1,0,0,3.743H215.2a1.947,1.947,0,0,0,2-1.872Zm-15.974,7.862a1.919,1.919,0,0,0-1.872-1.872H181.876a1.872,1.872,0,0,0,0,3.743h17.471A1.838,1.838,0,0,0,201.219,50.175Zm14.1-17.222H181.876a1.872,1.872,0,1,0,0,3.743H215.2a1.919,1.919,0,0,0,1.872-1.872,1.813,1.813,0,0,0-1.746-1.872ZM173.639,58.661H148.431a1.872,1.872,0,0,0,0,3.743h25.208a1.872,1.872,0,1,0,0-3.743Zm0,8.735H148.431a1.872,1.872,0,0,0,0,3.743h25.208a1.872,1.872,0,1,0,0-3.743Zm0,8.736H148.431a1.872,1.872,0,0,0,0,3.743h25.208a1.872,1.872,0,1,0,0-3.743Zm1.872-24.959a1.919,1.919,0,0,1-1.872,1.872H148.931a1.919,1.919,0,0,1-1.872-1.872V33.327a1.919,1.919,0,0,1,1.872-1.872H173.64a1.919,1.919,0,0,1,1.872,1.872ZM171.768,35.2H150.8V49.177h20.965Zm3.744,52.039v38.312a1.919,1.919,0,0,1-1.872,1.872H148.931a1.919,1.919,0,0,1-1.872-1.872V87.239a1.919,1.919,0,0,1,1.872-1.872H173.64a1.919,1.919,0,0,1,1.872,1.872Zm-3.744,1.872H150.8V123.8h20.965Z" transform="translate(-137.199 -19.601)" fill="#121212"/>
    </g>
  </g>
</svg>
